<?xml version="1.0" encoding="UTF-8" standalone="no"?>
<svg
   id="Layer_1"
   viewBox="0 0 1492.7199 276.01999"
   version="1.1"
   width="1492.72"
   height="276.01999"
   xmlns="http://www.w3.org/2000/svg"
   xmlns:svg="http://www.w3.org/2000/svg">
  <defs
     id="defs200">
    <style
       id="style198">.cls-1{fill:#1a0b3f;}.cls-2{fill:#58caef;}</style>
  </defs>
  <path
     class="cls-1"
     d="m 943.83,86.17 c 7.35,3.33 13.01,8.05 16.98,14.16 3.97,6.12 5.96,13.36 5.96,21.73 0,8.37 -1.99,15.48 -5.96,21.65 -3.97,6.17 -9.63,10.89 -16.98,14.16 -7.35,3.27 -16.01,4.91 -25.99,4.91 h -22.69 v 31.06 H 869.08 V 81.18 h 48.77 c 9.98,0 18.64,1.66 25.99,4.99 z m -9.58,50.3 c 4.08,-3.38 6.12,-8.18 6.12,-14.4 0,-6.22 -2.04,-11.19 -6.12,-14.57 -4.08,-3.38 -10.03,-5.07 -17.86,-5.07 h -21.24 v 39.11 h 21.24 c 7.83,0 13.78,-1.69 17.86,-5.07 z"
     id="path202" />
  <path
     class="cls-1"
     d="m 1087.94,81.26 v 112.66 h -26.07 v -46.19 h -51.18 v 46.19 H 984.62 V 81.26 h 26.07 v 44.42 h 51.18 V 81.26 Z"
     id="path204" />
  <path
     class="cls-1"
     d="m 1168.73,154.01 v 39.91 h -26.07 v -40.24 l -43.61,-72.42 h 27.68 l 30.1,50.05 30.1,-50.05 h 25.59 l -43.78,72.75 z"
     id="path206" />
  <path
     class="cls-1"
     d="m 1232.22,192.24 c -8.32,-2.41 -15,-5.55 -20.04,-9.41 l 8.85,-19.64 c 4.83,3.54 10.57,6.39 17.22,8.53 6.65,2.15 13.3,3.22 19.96,3.22 7.4,0 12.88,-1.1 16.42,-3.3 3.54,-2.2 5.31,-5.12 5.31,-8.77 0,-2.68 -1.05,-4.91 -3.14,-6.68 -2.09,-1.77 -4.77,-3.19 -8.05,-4.27 -3.27,-1.07 -7.7,-2.25 -13.28,-3.54 -8.58,-2.04 -15.61,-4.08 -21.08,-6.12 -5.47,-2.04 -10.17,-5.31 -14.08,-9.82 -3.92,-4.51 -5.87,-10.51 -5.87,-18.03 0,-6.54 1.77,-12.47 5.31,-17.78 3.54,-5.31 8.88,-9.52 16.01,-12.63 7.14,-3.11 15.85,-4.67 26.15,-4.67 7.19,0 14.21,0.86 21.08,2.58 6.87,1.72 12.88,4.18 18.03,7.4 l -8.05,19.8 c -10.41,-5.9 -20.82,-8.85 -31.22,-8.85 -7.3,0 -12.69,1.18 -16.17,3.54 -3.49,2.36 -5.23,5.47 -5.23,9.33 0,3.86 2.01,6.73 6.03,8.61 4.02,1.88 10.16,3.73 18.43,5.55 8.58,2.04 15.61,4.08 21.08,6.12 5.47,2.04 10.16,5.26 14.08,9.66 3.91,4.4 5.87,10.36 5.87,17.87 0,6.44 -1.8,12.31 -5.39,17.62 -3.59,5.31 -8.99,9.52 -16.17,12.63 -7.19,3.11 -15.93,4.67 -26.23,4.67 -8.91,0 -17.52,-1.21 -25.83,-3.62 z"
     id="path208" />
  <path
     class="cls-1"
     d="m 1323.72,81.26 h 26.07 v 112.66 h -26.07 z"
     id="path210" />
  <path
     class="cls-1"
     d="m 1399.44,188.29 c -9.39,-5.04 -16.74,-11.99 -22.05,-20.84 -5.31,-8.85 -7.97,-18.8 -7.97,-29.86 0,-11.06 2.66,-21 7.97,-29.85 5.31,-8.85 12.66,-15.8 22.05,-20.84 9.39,-5.04 19.93,-7.57 31.63,-7.57 11.7,0 22.21,2.52 31.55,7.57 9.33,5.05 16.68,11.99 22.05,20.84 5.37,8.85 8.05,18.81 8.05,29.85 0,11.04 -2.68,21 -8.05,29.86 -5.37,8.85 -12.71,15.8 -22.05,20.84 -9.34,5.05 -19.85,7.56 -31.55,7.56 -11.7,0 -22.24,-2.52 -31.63,-7.56 z m 49.65,-19.23 c 5.37,-3.06 9.58,-7.32 12.64,-12.8 3.06,-5.47 4.59,-11.69 4.59,-18.67 0,-6.98 -1.53,-13.2 -4.59,-18.67 -3.06,-5.47 -7.27,-9.74 -12.64,-12.8 -5.37,-3.06 -11.37,-4.59 -18.03,-4.59 -6.66,0 -12.66,1.53 -18.03,4.59 -5.37,3.06 -9.57,7.32 -12.63,12.8 -3.06,5.47 -4.59,11.69 -4.59,18.67 0,6.98 1.53,13.2 4.59,18.67 3.06,5.47 7.27,9.74 12.63,12.8 5.37,3.06 11.37,4.59 18.03,4.59 6.66,0 12.66,-1.53 18.03,-4.59 z"
     id="path212" />
  <g
     id="g222"
     transform="translate(-104.04,-95.85)">
    <path
       class="cls-1"
       d="m 134.06,284.14 c -9.39,-5.04 -16.74,-11.99 -22.05,-20.84 -5.31,-8.85 -7.97,-18.8 -7.97,-29.86 0,-11.06 2.66,-21 7.97,-29.85 5.31,-8.85 12.66,-15.8 22.05,-20.84 9.39,-5.04 19.93,-7.57 31.63,-7.57 11.7,0 22.21,2.52 31.54,7.57 9.33,5.05 16.68,11.99 22.05,20.84 5.37,8.85 8.05,18.81 8.05,29.85 0,11.04 -2.68,21 -8.05,29.86 -5.37,8.85 -12.71,15.8 -22.05,20.84 -9.33,5.05 -19.85,7.56 -31.54,7.56 -11.69,0 -22.24,-2.52 -31.63,-7.56 z m 49.65,-19.23 c 5.36,-3.06 9.57,-7.32 12.63,-12.8 3.06,-5.47 4.59,-11.69 4.59,-18.67 0,-6.98 -1.53,-13.2 -4.59,-18.67 -3.06,-5.47 -7.27,-9.74 -12.63,-12.8 -5.37,-3.06 -11.37,-4.59 -18.03,-4.59 -6.66,0 -12.66,1.53 -18.03,4.59 -5.37,3.06 -9.58,7.32 -12.64,12.8 -3.06,5.47 -4.59,11.69 -4.59,18.67 0,6.98 1.53,13.2 4.59,18.67 3.06,5.47 7.27,9.74 12.64,12.8 5.36,3.06 11.37,4.59 18.03,4.59 6.66,0 12.66,-1.53 18.03,-4.59 z"
       id="path214" />
    <path
       class="cls-1"
       d="M 560.05,177.11 V 289.77 H 533.98 V 243.58 H 482.8 v 46.19 H 456.73 V 177.11 h 26.07 v 44.42 h 51.18 v -44.42 z"
       id="path216" />
    <path
       class="cls-1"
       d="m 607.57,284.14 c -9.39,-5.04 -16.74,-11.99 -22.05,-20.84 -5.31,-8.85 -7.97,-18.8 -7.97,-29.86 0,-11.06 2.66,-21 7.97,-29.85 5.31,-8.85 12.66,-15.8 22.05,-20.84 9.39,-5.04 19.93,-7.57 31.63,-7.57 11.7,0 22.21,2.52 31.55,7.57 9.33,5.05 16.68,11.99 22.05,20.84 5.37,8.85 8.05,18.81 8.05,29.85 0,11.04 -2.68,21 -8.05,29.86 -5.37,8.85 -12.71,15.8 -22.05,20.84 -9.34,5.05 -19.85,7.56 -31.55,7.56 -11.7,0 -22.24,-2.52 -31.63,-7.56 z m 49.65,-19.23 c 5.37,-3.06 9.58,-7.32 12.64,-12.8 3.06,-5.47 4.59,-11.69 4.59,-18.67 0,-6.98 -1.53,-13.2 -4.59,-18.67 -3.06,-5.47 -7.27,-9.74 -12.64,-12.8 -5.37,-3.06 -11.37,-4.59 -18.03,-4.59 -6.66,0 -12.66,1.53 -18.03,4.59 -5.37,3.06 -9.57,7.32 -12.63,12.8 -3.06,5.47 -4.59,11.69 -4.59,18.67 0,6.98 1.53,13.2 4.59,18.67 3.06,5.47 7.27,9.74 12.63,12.8 5.37,3.06 11.37,4.59 18.03,4.59 6.66,0 12.66,-1.53 18.03,-4.59 z"
       id="path218" />
    <path
       class="cls-1"
       d="m 380.6,198.36 h -36.05 v -21.24 h 98.18 v 21.24 h -36.05 v 91.42 h -26.07 v -91.42 z"
       id="path220" />
  </g>
  <path
     class="cls-1"
     d="m 209.32,191.97 -21.68,-31.32 h -23.93 v 31.32 H 137.69 V 79.54 h 48.67 c 9.96,0 18.6,1.66 25.94,4.98 7.33,3.32 12.98,8.03 16.95,14.13 3.96,6.1 5.94,13.33 5.94,21.68 0,8.35 -2.01,15.55 -6.02,21.6 -4.01,6.05 -9.72,10.68 -17.11,13.89 l 25.22,36.14 h -27.95 z m -6.59,-86.17 c -4.07,-3.37 -10.01,-5.06 -17.83,-5.06 h -21.2 v 39.19 h 21.2 c 7.82,0 13.76,-1.71 17.83,-5.14 4.07,-3.43 6.1,-8.24 6.1,-14.46 0,-6.22 -2.04,-11.16 -6.1,-14.54 z"
     id="path224" />
  <g
     id="g230"
     transform="translate(-104.04,-95.85)">
    <path
       class="cls-2"
       d="m 901.68,241.22 c -1.04,16.51 -8.76,31.51 -21.16,41.15 l -25.47,19.67 -20.9,16.13 -0.2,0.15 -0.04,0.04 -34.13,26.35 -22.85,-16.73 c -28.17,-18.75 -45.6,-48.85 -47.8,-82.66 -2.26,-33.98 11.22,-66.29 37,-88.62 l 38.78,-33.33 32,-27.52 29.79,25.62 -31.75,27.72 -46.28,40.39 c -14.22,12.48 -22.23,30.47 -21.97,49.38 0.26,18.92 8.76,36.68 23.32,48.76 l 25.05,20.77 2.49,-2.11 0.23,-0.19 41.51,-33.88 c 10.7,-7.02 17.33,-18.42 18.18,-31.24 0.84,-12.78 -4.23,-24.96 -13.91,-33.36 l -22.92,-20.05 16,-15.51 30.35,28.22 c 10.31,10.32 15.66,25.2 14.68,40.84 z"
       id="path226" />
    <path
       class="cls-1"
       d="m 944.66,245.32 c -2.23,33.81 -19.66,63.91 -47.82,82.67 l -24.64,18.03 -35.31,25.85 -32.04,-23.46 79.37,-61.28 c 13.78,-10.7 22.35,-27.3 23.48,-45.54 1.09,-17.36 -4.9,-33.94 -16.51,-45.55 l -34.87,-32.45 -2.12,2.31 -44.12,41.84 c -9.62,8.36 -14.69,20.54 -13.87,33.36 0.84,12.78 7.48,24.18 18.18,31.21 l 0.52,0.36 18.17,13.15 -18.05,14.78 -21.15,-17.54 c -13.2,-10.95 -20.9,-27.06 -21.13,-44.2 -0.24,-17.14 7.02,-33.46 19.91,-44.76 l 27.33,-23.86 19.51,-17.02 31.83,-27.79 36.4,31.29 c 25.72,22.32 39.18,54.62 36.94,88.6 z"
       id="path228" />
  </g>
</svg>
