<?xml version="1.0" encoding="UTF-8" standalone="no"?>
<svg
   id="Layer_1"
   viewBox="0 0 1469.6344 281.75236"
   version="1.1"
   width="1469.6344"
   height="281.75235"
   xmlns="http://www.w3.org/2000/svg"
   xmlns:svg="http://www.w3.org/2000/svg">
  <defs
     id="defs457">
    <style
       id="style455">.cls-1{fill:#1a0b3f;}.cls-2{fill:#58caef;}</style>
  </defs>
  <g
     id="g515"
     transform="matrix(1.3863037,0,0,1.3863037,-129.71644,-114.55027)">
    <path
       class="cls-1"
       d="m 174.99,243.46 h 13.9 c 3.49,0 6.58,0.69 9.29,2.08 2.7,1.38 4.8,3.32 6.29,5.82 1.49,2.5 2.24,5.37 2.24,8.6 0,3.23 -0.75,6.1 -2.24,8.6 -1.49,2.5 -3.59,4.44 -6.29,5.82 -2.7,1.38 -5.8,2.08 -9.29,2.08 h -13.9 z m 13.62,28.89 c 2.67,0 5.02,-0.52 7.05,-1.55 2.03,-1.04 3.59,-2.49 4.69,-4.36 1.1,-1.87 1.65,-4.03 1.65,-6.48 0,-2.45 -0.55,-4.61 -1.65,-6.48 -1.1,-1.87 -2.66,-3.32 -4.69,-4.36 -2.03,-1.04 -4.38,-1.56 -7.05,-1.56 h -8.91 v 24.79 z"
       id="path459" />
    <path
       class="cls-1"
       d="m 221.09,252.37 c 1.54,-0.75 3.41,-1.13 5.61,-1.13 v 4.38 c -0.25,-0.03 -0.6,-0.05 -1.04,-0.05 -2.45,0 -4.38,0.73 -5.77,2.19 -1.4,1.46 -2.1,3.54 -2.1,6.25 v 12.44 h -4.52 v -24.98 h 4.33 v 4.2 c 0.79,-1.45 1.95,-2.55 3.49,-3.3 z"
       id="path461" />
    <path
       class="cls-1"
       d="m 276.52,276.45 -0.05,-24.04 -11.93,20.03 h -2.17 l -11.93,-19.89 v 23.9 h -4.52 v -33 h 3.87 l 13.76,23.19 13.57,-23.19 h 3.87 l 0.05,33 z"
       id="path463" />
    <path
       class="cls-1"
       d="m 290.36,245.81 c -0.58,-0.57 -0.87,-1.26 -0.87,-2.08 0,-0.82 0.29,-1.52 0.87,-2.1 0.58,-0.58 1.31,-0.87 2.19,-0.87 0.88,0 1.61,0.27 2.19,0.82 0.58,0.55 0.87,1.23 0.87,2.05 0,0.82 -0.29,1.57 -0.87,2.15 -0.58,0.58 -1.31,0.87 -2.19,0.87 -0.88,0 -1.61,-0.28 -2.19,-0.85 z m -0.07,5.65 h 4.52 v 24.98 h -4.52 z"
       id="path465" />
    <path
       class="cls-1"
       d="m 307.51,275.08 c -1.99,-1.1 -3.56,-2.61 -4.69,-4.55 -1.13,-1.93 -1.7,-4.12 -1.7,-6.58 0,-2.46 0.57,-4.64 1.7,-6.58 1.13,-1.93 2.7,-3.44 4.69,-4.52 2,-1.08 4.27,-1.63 6.81,-1.63 2.26,0 4.28,0.45 6.06,1.37 1.78,0.91 3.15,2.23 4.12,3.96 l -3.44,2.22 c -0.78,-1.2 -1.76,-2.09 -2.92,-2.69 -1.16,-0.59 -2.45,-0.89 -3.87,-0.89 -1.64,0 -3.1,0.36 -4.41,1.08 -1.31,0.72 -2.33,1.75 -3.06,3.09 -0.74,1.33 -1.11,2.87 -1.11,4.6 0,1.73 0.37,3.31 1.11,4.64 0.74,1.33 1.76,2.36 3.06,3.09 1.3,0.72 2.77,1.08 4.41,1.08 1.41,0 2.7,-0.3 3.87,-0.9 1.16,-0.59 2.14,-1.49 2.92,-2.68 l 3.44,2.17 c -0.97,1.73 -2.35,3.05 -4.12,3.98 -1.78,0.93 -3.8,1.39 -6.06,1.39 -2.54,0 -4.82,-0.55 -6.81,-1.65 z"
       id="path467" />
    <path
       class="cls-1"
       d="m 350.93,253.99 c 1.87,1.84 2.8,4.53 2.8,8.08 v 14.38 h -4.52 v -13.86 c 0,-2.42 -0.58,-4.24 -1.74,-5.47 -1.16,-1.22 -2.83,-1.84 -5,-1.84 -2.45,0 -4.38,0.72 -5.8,2.15 -1.41,1.43 -2.12,3.48 -2.12,6.15 v 12.87 h -4.52 v -34.97 h 4.52 v 13.53 c 0.94,-1.19 2.17,-2.12 3.7,-2.78 1.52,-0.66 3.23,-0.99 5.12,-0.99 3.17,0 5.7,0.92 7.56,2.76 z"
       id="path469" />
    <path
       class="cls-1"
       d="m 379.16,253.78 c 1.84,1.7 2.76,4.23 2.76,7.59 v 15.08 h -4.29 v -3.3 c -0.75,1.16 -1.83,2.05 -3.23,2.66 -1.4,0.61 -3.06,0.92 -4.97,0.92 -2.8,0 -5.04,-0.68 -6.72,-2.03 -1.68,-1.35 -2.52,-3.13 -2.52,-5.33 0,-2.2 0.8,-3.96 2.4,-5.3 1.6,-1.33 4.15,-2 7.64,-2 h 7.16 v -0.89 c 0,-1.95 -0.57,-3.44 -1.7,-4.48 -1.13,-1.03 -2.8,-1.55 -5,-1.55 -1.48,0 -2.92,0.24 -4.34,0.73 -1.41,0.49 -2.61,1.14 -3.58,1.96 l -1.89,-3.4 c 1.29,-1.04 2.83,-1.83 4.62,-2.38 1.79,-0.55 3.69,-0.82 5.7,-0.82 3.45,0 6.1,0.85 7.94,2.54 z m -4.5,18.31 c 1.26,-0.77 2.17,-1.86 2.73,-3.28 v -3.49 h -6.98 c -3.84,0 -5.75,1.29 -5.75,3.87 0,1.26 0.49,2.25 1.46,2.97 0.97,0.73 2.33,1.08 4.05,1.08 1.72,0 3.22,-0.38 4.48,-1.15 z"
       id="path471" />
    <path
       class="cls-1"
       d="m 412.93,265.47 h -20.27 c 0.28,2.2 1.25,3.97 2.9,5.3 1.65,1.34 3.7,2.01 6.15,2.01 2.98,0 5.39,-1.01 7.21,-3.02 l 2.5,2.92 c -1.13,1.32 -2.54,2.33 -4.22,3.02 -1.68,0.69 -3.56,1.04 -5.63,1.04 -2.64,0 -4.98,-0.54 -7.02,-1.63 -2.04,-1.08 -3.62,-2.6 -4.74,-4.55 -1.12,-1.95 -1.67,-4.15 -1.67,-6.6 0,-2.45 0.54,-4.6 1.63,-6.55 1.08,-1.95 2.58,-3.47 4.48,-4.55 1.9,-1.08 4.05,-1.63 6.44,-1.63 2.39,0 4.52,0.54 6.39,1.63 1.87,1.08 3.33,2.6 4.38,4.55 1.05,1.95 1.58,4.18 1.58,6.69 0,0.35 -0.03,0.8 -0.09,1.37 z m -17.7,-8.44 c -1.46,1.32 -2.32,3.05 -2.57,5.18 h 16.03 c -0.25,-2.1 -1.11,-3.82 -2.57,-5.16 -1.46,-1.33 -3.28,-2.01 -5.44,-2.01 -2.16,0 -3.98,0.66 -5.44,1.98 z"
       id="path473" />
    <path
       class="cls-1"
       d="m 419.3,241.48 h 4.52 v 34.97 h -4.52 z"
       id="path475" />
    <path
       class="cls-1"
       d="m 472.51,262.24 c 1.1,1.4 1.65,3.17 1.65,5.3 0,2.86 -1.08,5.06 -3.23,6.6 -2.15,1.54 -5.29,2.31 -9.4,2.31 h -15.74 v -33 h 14.8 c 3.77,0 6.68,0.75 8.74,2.26 2.06,1.51 3.09,3.6 3.09,6.27 0,1.73 -0.4,3.22 -1.2,4.48 -0.8,1.26 -1.88,2.22 -3.23,2.87 1.92,0.53 3.42,1.5 4.53,2.9 z M 450.5,247.28 v 10.56 h 9.66 c 2.42,0 4.28,-0.45 5.58,-1.34 1.31,-0.9 1.96,-2.21 1.96,-3.94 0,-1.73 -0.65,-3.04 -1.96,-3.93 -1.3,-0.89 -3.17,-1.34 -5.58,-1.34 h -9.66 z m 16.87,24.04 c 1.35,-0.88 2.03,-2.26 2.03,-4.15 0,-3.68 -2.69,-5.51 -8.06,-5.51 H 450.5 v 10.98 h 10.84 c 2.67,0 4.68,-0.44 6.03,-1.32 z"
       id="path477" />
    <path
       class="cls-1"
       d="m 484.81,275.08 c -1.98,-1.1 -3.53,-2.61 -4.64,-4.55 -1.11,-1.94 -1.67,-4.12 -1.67,-6.58 0,-2.46 0.56,-4.64 1.67,-6.58 1.12,-1.93 2.66,-3.44 4.64,-4.52 1.98,-1.08 4.21,-1.63 6.69,-1.63 2.48,0 4.71,0.54 6.67,1.63 1.96,1.08 3.5,2.59 4.62,4.52 1.12,1.93 1.67,4.12 1.67,6.58 0,2.46 -0.56,4.64 -1.67,6.58 -1.12,1.93 -2.66,3.45 -4.62,4.55 -1.96,1.1 -4.19,1.65 -6.67,1.65 -2.48,0 -4.71,-0.55 -6.69,-1.65 z m 11.01,-3.42 c 1.27,-0.74 2.27,-1.78 2.99,-3.11 0.72,-1.33 1.08,-2.87 1.08,-4.59 0,-1.72 -0.36,-3.26 -1.08,-4.6 -0.72,-1.33 -1.72,-2.36 -2.99,-3.09 -1.27,-0.72 -2.71,-1.08 -4.31,-1.08 -1.6,0 -3.04,0.36 -4.31,1.08 -1.27,0.72 -2.28,1.75 -3.02,3.09 -0.74,1.33 -1.11,2.87 -1.11,4.6 0,1.73 0.37,3.26 1.11,4.59 0.74,1.34 1.74,2.37 3.02,3.11 1.27,0.74 2.71,1.11 4.31,1.11 1.6,0 3.04,-0.37 4.31,-1.11 z"
       id="path479" />
    <path
       class="cls-1"
       d="m 534.02,251.47 v 24.98 h -4.29 v -3.77 c -0.91,1.29 -2.11,2.29 -3.61,2.99 -1.49,0.71 -3.12,1.06 -4.88,1.06 -3.33,0 -5.95,-0.92 -7.87,-2.76 -1.92,-1.84 -2.87,-4.55 -2.87,-8.13 v -14.38 h 4.52 v 13.86 c 0,2.42 0.58,4.25 1.74,5.49 1.16,1.24 2.83,1.86 5,1.86 2.39,0 4.27,-0.72 5.65,-2.17 1.38,-1.44 2.08,-3.49 2.08,-6.13 v -12.92 h 4.52 z"
       id="path481" />
    <path
       class="cls-1"
       d="m 550.47,252.37 c 1.54,-0.75 3.41,-1.13 5.61,-1.13 v 4.38 c -0.25,-0.03 -0.6,-0.05 -1.04,-0.05 -2.45,0 -4.38,0.73 -5.77,2.19 -1.4,1.46 -2.1,3.54 -2.1,6.25 v 12.44 h -4.52 v -24.98 h 4.33 v 4.2 c 0.79,-1.45 1.95,-2.55 3.49,-3.3 z"
       id="path483" />
    <path
       class="cls-1"
       d="m 571.35,264.81 -5.19,4.81 v 6.84 h -4.52 v -34.97 h 4.52 v 22.44 l 13.62,-12.45 h 5.47 l -10.51,10.32 11.55,14.66 h -5.56 l -9.38,-11.64 z"
       id="path485" />
    <path
       class="cls-1"
       d="m 612.12,265.47 h -20.27 c 0.28,2.2 1.25,3.97 2.9,5.3 1.65,1.34 3.7,2.01 6.15,2.01 2.98,0 5.39,-1.01 7.21,-3.02 l 2.5,2.92 c -1.13,1.32 -2.54,2.33 -4.22,3.02 -1.68,0.69 -3.56,1.04 -5.63,1.04 -2.64,0 -4.98,-0.54 -7.02,-1.63 -2.04,-1.08 -3.62,-2.6 -4.74,-4.55 -1.12,-1.95 -1.67,-4.15 -1.67,-6.6 0,-2.45 0.54,-4.6 1.63,-6.55 1.08,-1.95 2.58,-3.47 4.48,-4.55 1.9,-1.08 4.05,-1.63 6.44,-1.63 2.39,0 4.52,0.54 6.39,1.63 1.87,1.08 3.33,2.6 4.38,4.55 1.05,1.95 1.58,4.18 1.58,6.69 0,0.35 -0.03,0.8 -0.09,1.37 z m -17.7,-8.44 c -1.46,1.32 -2.32,3.05 -2.57,5.18 h 16.03 c -0.25,-2.1 -1.11,-3.82 -2.57,-5.16 -1.46,-1.33 -3.28,-2.01 -5.44,-2.01 -2.16,0 -3.98,0.66 -5.44,1.98 z"
       id="path487" />
    <path
       class="cls-2"
       d="m 631.83,241.48 h 4.19 v 44.12 h -4.19 z"
       id="path489" />
    <path
       class="cls-1"
       d="m 681.55,246.52 c 2.45,2.04 3.68,4.85 3.68,8.44 0,3.59 -1.22,6.4 -3.68,8.44 -2.45,2.04 -5.81,3.06 -10.09,3.06 h -8.16 v 9.99 h -4.71 v -33 h 12.87 c 4.27,0 7.63,1.02 10.09,3.07 z m -3.39,13.93 c 1.57,-1.27 2.36,-3.1 2.36,-5.49 0,-2.39 -0.78,-4.22 -2.36,-5.49 -1.57,-1.27 -3.85,-1.91 -6.84,-1.91 h -8.01 v 14.8 h 8.01 c 2.98,0 5.26,-0.64 6.84,-1.91 z"
       id="path491" />
    <path
       class="cls-1"
       d="m 712.87,253.99 c 1.87,1.84 2.8,4.53 2.8,8.08 v 14.38 h -4.52 v -13.86 c 0,-2.42 -0.58,-4.24 -1.74,-5.47 -1.16,-1.22 -2.83,-1.84 -5,-1.84 -2.45,0 -4.38,0.72 -5.8,2.15 -1.41,1.43 -2.12,3.48 -2.12,6.15 v 12.87 h -4.52 v -34.97 h 4.52 v 13.53 c 0.94,-1.19 2.17,-2.12 3.7,-2.78 1.52,-0.66 3.23,-0.99 5.12,-0.99 3.17,0 5.7,0.92 7.56,2.76 z"
       id="path493" />
    <path
       class="cls-1"
       d="m 724.73,243.46 h 13.9 c 3.49,0 6.58,0.69 9.29,2.08 2.7,1.38 4.8,3.32 6.29,5.82 1.49,2.5 2.24,5.37 2.24,8.6 0,3.23 -0.75,6.1 -2.24,8.6 -1.49,2.5 -3.59,4.44 -6.29,5.82 -2.7,1.38 -5.8,2.08 -9.29,2.08 h -13.9 z m 13.62,28.89 c 2.67,0 5.02,-0.52 7.05,-1.55 2.03,-1.04 3.59,-2.49 4.69,-4.36 1.1,-1.87 1.65,-4.03 1.65,-6.48 0,-2.45 -0.55,-4.61 -1.65,-6.48 -1.1,-1.87 -2.66,-3.32 -4.69,-4.36 -2.03,-1.04 -4.38,-1.56 -7.05,-1.56 h -8.91 v 24.79 z"
       id="path495" />
    <path
       class="cls-1"
       d="m 803.07,262.24 c 1.1,1.4 1.65,3.17 1.65,5.3 0,2.86 -1.08,5.06 -3.23,6.6 -2.15,1.54 -5.29,2.31 -9.4,2.31 h -15.74 v -33 h 14.8 c 3.77,0 6.68,0.75 8.74,2.26 2.06,1.51 3.09,3.6 3.09,6.27 0,1.73 -0.4,3.22 -1.2,4.48 -0.8,1.26 -1.88,2.22 -3.23,2.87 1.92,0.53 3.42,1.5 4.53,2.9 z m -22.01,-14.96 v 10.56 h 9.66 c 2.42,0 4.28,-0.45 5.58,-1.34 1.31,-0.9 1.96,-2.21 1.96,-3.94 0,-1.73 -0.65,-3.04 -1.96,-3.93 -1.3,-0.89 -3.17,-1.34 -5.58,-1.34 h -9.66 z m 16.87,24.04 c 1.35,-0.88 2.03,-2.26 2.03,-4.15 0,-3.68 -2.69,-5.51 -8.06,-5.51 h -10.84 v 10.98 h 10.84 c 2.67,0 4.68,-0.44 6.03,-1.32 z"
       id="path497" />
    <path
       class="cls-1"
       d="m 834.97,246.52 c 2.45,2.04 3.68,4.85 3.68,8.44 0,3.59 -1.22,6.4 -3.68,8.44 -2.45,2.04 -5.81,3.06 -10.09,3.06 h -8.16 v 9.99 h -4.71 v -33 h 12.87 c 4.27,0 7.63,1.02 10.09,3.07 z m -3.39,13.93 c 1.57,-1.27 2.36,-3.1 2.36,-5.49 0,-2.39 -0.78,-4.22 -2.36,-5.49 -1.57,-1.27 -3.85,-1.91 -6.84,-1.91 h -8.01 v 14.8 h 8.01 c 2.98,0 5.26,-0.64 6.84,-1.91 z"
       id="path499" />
    <path
       class="cls-1"
       d="m 866.29,253.99 c 1.87,1.84 2.8,4.53 2.8,8.08 v 14.38 h -4.52 v -13.86 c 0,-2.42 -0.58,-4.24 -1.74,-5.47 -1.16,-1.22 -2.83,-1.84 -5,-1.84 -2.45,0 -4.38,0.72 -5.8,2.15 -1.41,1.43 -2.12,3.48 -2.12,6.15 v 12.87 h -4.52 v -34.97 h 4.52 v 13.53 c 0.94,-1.19 2.17,-2.12 3.7,-2.78 1.52,-0.66 3.23,-0.99 5.12,-0.99 3.17,0 5.7,0.92 7.56,2.76 z"
       id="path501" />
    <path
       class="cls-1"
       d="m 891.53,274.99 c -0.66,0.57 -1.47,1 -2.45,1.29 -0.98,0.3 -1.98,0.45 -3.02,0.45 -2.52,0 -4.46,-0.68 -5.85,-2.03 -1.38,-1.35 -2.07,-3.28 -2.07,-5.8 v -13.72 h -4.24 v -3.73 h 4.24 v -5.47 h 4.52 v 5.47 h 7.16 v 3.73 h -7.16 v 13.53 c 0,1.35 0.34,2.39 1.01,3.11 0.67,0.72 1.64,1.08 2.9,1.08 1.38,0 2.56,-0.39 3.53,-1.18 l 1.41,3.25 z"
       id="path503" />
    <path
       class="cls-1"
       d="m 918.63,251.47 -12.11,27.48 c -1.07,2.54 -2.32,4.34 -3.75,5.37 -1.43,1.03 -3.15,1.55 -5.16,1.55 -1.22,0 -2.41,-0.2 -3.56,-0.59 -1.15,-0.39 -2.1,-0.96 -2.85,-1.72 l 1.93,-3.4 c 1.29,1.23 2.78,1.84 4.48,1.84 1.1,0 2.02,-0.29 2.76,-0.87 0.74,-0.58 1.41,-1.58 2.01,-2.99 l 0.8,-1.74 -11.03,-24.94 h 4.71 l 8.72,19.99 8.63,-19.99 h 4.43 z"
       id="path505" />
    <path
       class="cls-1"
       d="m 957.24,268.2 h -17.53 l -3.63,8.25 h -4.85 l 14.94,-33 h 4.67 l 14.99,33 h -4.95 l -3.63,-8.25 z m -1.65,-3.77 -7.12,-16.17 -7.12,16.17 h 14.23 z"
       id="path507" />
    <path
       class="cls-1"
       d="m 993.67,246.52 c 2.45,2.04 3.68,4.85 3.68,8.44 0,3.59 -1.22,6.4 -3.68,8.44 -2.45,2.04 -5.81,3.06 -10.09,3.06 h -8.16 v 9.99 h -4.71 v -33 h 12.87 c 4.27,0 7.63,1.02 10.09,3.07 z m -3.39,13.93 c 1.57,-1.27 2.36,-3.1 2.36,-5.49 0,-2.39 -0.78,-4.22 -2.36,-5.49 -1.57,-1.27 -3.85,-1.91 -6.84,-1.91 h -8.01 v 14.8 h 8.01 c 2.98,0 5.26,-0.64 6.84,-1.91 z"
       id="path509" />
    <path
       class="cls-1"
       d="m 1023.65,268.2 h -17.53 l -3.63,8.25 h -4.85 l 14.94,-33 h 4.67 l 14.99,33 h -4.95 l -3.63,-8.25 z m -1.65,-3.77 -7.12,-16.17 -7.12,16.17 h 14.23 z"
       id="path511" />
    <path
       class="cls-1"
       d="m 1067.72,276.45 -0.05,-24.04 -11.93,20.03 h -2.17 l -11.93,-19.89 v 23.9 h -4.52 v -33 h 3.87 l 13.76,23.19 13.57,-23.19 h 3.87 l 0.05,33 z"
       id="path513" />
  </g>
  <g
     id="g545"
     transform="matrix(1.3863037,0,0,1.3863037,-129.71644,-114.55027)">
    <path
       class="cls-1"
       d="m 745.39,119.97 c 5.44,2.46 9.64,5.96 12.58,10.49 2.94,4.53 4.41,9.89 4.41,16.09 0,6.2 -1.47,11.46 -4.41,16.03 -2.94,4.57 -7.14,8.07 -12.58,10.49 -5.44,2.42 -11.86,3.64 -19.25,3.64 h -16.81 v 23.01 h -19.31 v -83.45 h 36.12 c 7.39,0 13.81,1.23 19.25,3.7 z m -7.09,37.25 c 3.02,-2.5 4.53,-6.06 4.53,-10.67 0,-4.61 -1.51,-8.28 -4.53,-10.79 -3.02,-2.5 -7.43,-3.76 -13.23,-3.76 h -15.74 v 28.97 h 15.74 c 5.8,0 10.21,-1.25 13.23,-3.76 z"
       id="path517" />
    <path
       class="cls-1"
       d="m 853.86,116.21 v 83.45 h -19.31 v -34.21 h -37.91 v 34.21 h -19.31 v -83.45 h 19.31 v 32.9 h 37.91 v -32.9 z"
       id="path519" />
    <path
       class="cls-1"
       d="m 913.71,170.09 v 29.56 H 894.4 v -29.8 L 862.09,116.2 h 20.5 l 22.29,37.08 22.29,-37.08 h 18.96 l -32.43,53.88 z"
       id="path521" />
    <path
       class="cls-1"
       d="m 960.73,198.41 c -6.16,-1.79 -11.11,-4.11 -14.84,-6.97 l 6.56,-14.54 c 3.58,2.62 7.83,4.73 12.76,6.32 4.93,1.59 9.85,2.38 14.78,2.38 5.48,0 9.54,-0.81 12.16,-2.44 2.62,-1.63 3.93,-3.79 3.93,-6.5 0,-1.99 -0.78,-3.64 -2.33,-4.95 -1.55,-1.31 -3.54,-2.36 -5.96,-3.16 -2.42,-0.79 -5.7,-1.67 -9.83,-2.62 -6.36,-1.51 -11.56,-3.02 -15.62,-4.53 -4.05,-1.51 -7.53,-3.93 -10.43,-7.27 -2.9,-3.34 -4.35,-7.79 -4.35,-13.35 0,-4.85 1.31,-9.24 3.93,-13.17 2.62,-3.93 6.58,-7.05 11.86,-9.36 5.29,-2.3 11.74,-3.46 19.37,-3.46 5.32,0 10.53,0.64 15.62,1.91 5.09,1.27 9.54,3.1 13.35,5.48 l -5.96,14.66 c -7.71,-4.37 -15.42,-6.56 -23.13,-6.56 -5.41,0 -9.4,0.88 -11.98,2.62 -2.58,1.75 -3.87,4.05 -3.87,6.91 0,2.86 1.49,4.99 4.47,6.38 2.98,1.39 7.53,2.76 13.65,4.11 6.36,1.51 11.56,3.02 15.62,4.53 4.05,1.51 7.53,3.89 10.43,7.15 2.9,3.26 4.35,7.67 4.35,13.23 0,4.77 -1.33,9.12 -3.99,13.05 -2.66,3.93 -6.66,7.05 -11.98,9.36 -5.33,2.3 -11.8,3.46 -19.43,3.46 -6.6,0 -12.98,-0.89 -19.13,-2.68 z"
       id="path523" />
    <path
       class="cls-1"
       d="m 1028.51,116.21 h 19.31 v 83.45 h -19.31 z"
       id="path525" />
    <path
       class="cls-1"
       d="m 1084.59,195.49 c -6.96,-3.73 -12.4,-8.88 -16.33,-15.44 -3.93,-6.56 -5.9,-13.93 -5.9,-22.12 0,-8.19 1.97,-15.56 5.9,-22.11 3.93,-6.56 9.38,-11.7 16.33,-15.44 6.95,-3.74 14.76,-5.6 23.43,-5.6 8.67,0 16.45,1.87 23.37,5.6 6.91,3.74 12.36,8.88 16.33,15.44 3.97,6.56 5.96,13.93 5.96,22.11 0,8.18 -1.99,15.56 -5.96,22.12 -3.98,6.56 -9.42,11.7 -16.33,15.44 -6.92,3.74 -14.7,5.6 -23.37,5.6 -8.67,0 -16.47,-1.87 -23.43,-5.6 z m 36.78,-14.25 c 3.97,-2.27 7.09,-5.42 9.36,-9.48 2.26,-4.05 3.4,-8.66 3.4,-13.83 0,-5.17 -1.13,-9.77 -3.4,-13.83 -2.27,-4.05 -5.39,-7.21 -9.36,-9.48 -3.97,-2.27 -8.43,-3.4 -13.35,-3.4 -4.92,0 -9.38,1.13 -13.35,3.4 -3.97,2.27 -7.09,5.42 -9.36,9.48 -2.27,4.05 -3.4,8.66 -3.4,13.83 0,5.17 1.13,9.78 3.4,13.83 2.27,4.05 5.38,7.21 9.36,9.48 3.97,2.27 8.42,3.4 13.35,3.4 4.93,0 9.38,-1.13 13.35,-3.4 z"
       id="path527" />
    <g
       id="g537">
      <path
         class="cls-1"
         d="m 115.8,195.49 c -6.96,-3.73 -12.4,-8.88 -16.33,-15.44 -3.93,-6.56 -5.9,-13.93 -5.9,-22.12 0,-8.19 1.97,-15.56 5.9,-22.11 3.93,-6.56 9.38,-11.7 16.33,-15.44 6.95,-3.74 14.76,-5.6 23.43,-5.6 8.67,0 16.45,1.87 23.37,5.6 6.91,3.74 12.36,8.88 16.33,15.44 3.97,6.56 5.96,13.93 5.96,22.11 0,8.18 -1.99,15.56 -5.96,22.12 -3.97,6.56 -9.42,11.7 -16.33,15.44 -6.91,3.74 -14.7,5.6 -23.37,5.6 -8.67,0 -16.47,-1.87 -23.43,-5.6 z m 36.78,-14.25 c 3.97,-2.27 7.09,-5.42 9.36,-9.48 2.27,-4.05 3.4,-8.66 3.4,-13.83 0,-5.17 -1.13,-9.77 -3.4,-13.83 -2.27,-4.05 -5.39,-7.21 -9.36,-9.48 -3.98,-2.27 -8.43,-3.4 -13.35,-3.4 -4.92,0 -9.38,1.13 -13.35,3.4 -3.98,2.27 -7.09,5.42 -9.36,9.48 -2.26,4.05 -3.4,8.66 -3.4,13.83 0,5.17 1.13,9.78 3.4,13.83 2.27,4.05 5.38,7.21 9.36,9.48 3.97,2.27 8.42,3.4 13.35,3.4 4.93,0 9.38,-1.13 13.35,-3.4 z"
         id="path529" />
      <path
         class="cls-1"
         d="m 431.33,116.21 v 83.45 h -19.31 v -34.21 h -37.91 v 34.21 H 354.8 v -83.45 h 19.31 v 32.9 h 37.91 v -32.9 z"
         id="path531" />
      <path
         class="cls-1"
         d="m 466.54,195.49 c -6.96,-3.73 -12.4,-8.88 -16.33,-15.44 -3.93,-6.56 -5.9,-13.93 -5.9,-22.12 0,-8.19 1.97,-15.56 5.9,-22.11 3.93,-6.56 9.38,-11.7 16.33,-15.44 6.95,-3.74 14.76,-5.6 23.43,-5.6 8.67,0 16.45,1.87 23.37,5.6 6.91,3.74 12.36,8.88 16.33,15.44 3.97,6.56 5.96,13.93 5.96,22.11 0,8.18 -1.99,15.56 -5.96,22.12 -3.98,6.56 -9.42,11.7 -16.33,15.44 -6.92,3.74 -14.7,5.6 -23.37,5.6 -8.67,0 -16.47,-1.87 -23.43,-5.6 z m 36.78,-14.25 c 3.97,-2.27 7.09,-5.42 9.36,-9.48 2.26,-4.05 3.4,-8.66 3.4,-13.83 0,-5.17 -1.13,-9.77 -3.4,-13.83 -2.27,-4.05 -5.39,-7.21 -9.36,-9.48 -3.97,-2.27 -8.43,-3.4 -13.35,-3.4 -4.92,0 -9.38,1.13 -13.35,3.4 -3.97,2.27 -7.09,5.42 -9.36,9.48 -2.27,4.05 -3.4,8.66 -3.4,13.83 0,5.17 1.13,9.78 3.4,13.83 2.27,4.05 5.38,7.21 9.36,9.48 3.97,2.27 8.42,3.4 13.35,3.4 4.93,0 9.38,-1.13 13.35,-3.4 z"
         id="path533" />
      <path
         class="cls-1"
         d="m 298.41,131.95 h -26.7 v -15.74 h 72.72 v 15.74 h -26.7 v 67.71 h -19.31 v -67.71 z"
         id="path535" />
    </g>
    <g
       id="g543">
      <path
         class="cls-2"
         d="m 645.89,156.88 c -0.53,8.43 -4.47,16.1 -10.81,21.02 l -13.01,10.05 -10.68,8.24 -0.1,0.08 -0.02,0.02 -17.43,13.46 -11.67,-8.54 c -14.39,-9.58 -23.29,-24.95 -24.41,-42.22 -1.15,-17.36 5.73,-33.86 18.9,-45.27 l 19.81,-17.03 16.34,-14.06 15.22,13.08 -16.22,14.16 -23.64,20.63 c -7.26,6.37 -11.35,15.56 -11.22,25.22 0.13,9.66 4.47,18.74 11.91,24.9 l 12.79,10.61 1.27,-1.08 0.11,-0.1 21.2,-17.3 c 5.47,-3.59 8.85,-9.41 9.29,-15.96 0.43,-6.53 -2.16,-12.75 -7.1,-17.04 l -11.7,-10.24 8.17,-7.92 15.5,14.41 c 5.27,5.27 8,12.87 7.5,20.86 z"
         id="path539" />
      <path
         class="cls-1"
         d="m 667.84,158.98 c -1.14,17.27 -10.04,32.64 -24.43,42.23 l -12.59,9.21 -18.04,13.2 -16.37,-11.98 40.54,-31.3 c 7.04,-5.47 11.42,-13.94 12,-23.26 0.56,-8.87 -2.5,-17.33 -8.43,-23.27 l -17.81,-16.57 -1.08,1.18 -22.53,21.37 c -4.92,4.27 -7.5,10.49 -7.09,17.04 0.43,6.53 3.82,12.35 9.29,15.94 l 0.27,0.18 9.28,6.72 -9.22,7.55 -10.8,-8.96 c -6.74,-5.59 -10.68,-13.82 -10.79,-22.58 -0.12,-8.75 3.59,-17.09 10.17,-22.86 l 13.96,-12.19 9.96,-8.69 16.26,-14.2 18.59,15.98 c 13.14,11.4 20.01,27.9 18.87,45.26 z"
         id="path541" />
    </g>
  </g>
  <path
     class="cls-1"
     d="m 213.79573,162.68273 -22.67992,-32.75836 h -25.03664 v 32.75836 H 138.86603 V 45.082588 h 50.90506 c 10.41114,0 19.4637,1.73288 27.12997,5.212501 7.66626,3.465759 13.58577,8.400999 17.73082,14.777996 4.14505,6.376996 6.21063,13.946214 6.21063,22.679928 0,8.733712 -2.10718,16.275207 -6.30767,22.596747 -4.20051,6.32155 -10.16162,11.17361 -17.89718,14.52846 l 26.38135,37.80451 H 213.78188 Z M 206.9058,72.545262 c -4.25594,-3.535074 -10.46659,-5.29568 -18.64579,-5.29568 h -22.18084 v 40.992998 h 22.18084 c 8.1792,0 14.38985,-1.78833 18.64579,-5.37886 4.25596,-3.576661 6.39086,-8.622807 6.39086,-15.12457 0,-6.501764 -2.1349,-11.672676 -6.39086,-15.207752 z"
     id="path547"
     style="stroke-width:1.3863" />
</svg>
